<svg width="1200" height="630" viewBox="0 0 1200 630" fill="none" xmlns="http://www.w3.org/2000/svg">
  <rect width="1200" height="630" rx="40" fill="#050B16"/>
  <circle cx="190" cy="142" r="180" fill="url(#orb1)" fill-opacity="0.45"/>
  <circle cx="1015" cy="132" r="170" fill="url(#orb2)" fill-opacity="0.3"/>
  <g opacity="0.17">
    <path d="M0 88H1200M0 178H1200M0 268H1200M0 358H1200M0 448H1200M0 538H1200" stroke="#D7E9FF"/>
    <path d="M86 0V630M236 0V630M386 0V630M536 0V630M686 0V630M836 0V630M986 0V630M1136 0V630" stroke="#D7E9FF"/>
  </g>
  <g transform="translate(110 145)">
    <path d="M112 16L160 39L181 84L171 150L122 215L63 207L22 151L27 86L61 39L112 16Z" fill="url(#wolfCore)"/>
    <path d="M118 48L149 63L159 96L141 128L110 144L80 132L65 99L74 64L118 48Z" fill="#07111F"/>
    <path d="M94 76L114 88L105 111H83L73 93L94 76Z" fill="#4FD1FF"/>
    <path d="M124 75L146 86L136 111H115L105 93L124 75Z" fill="#8A7DFF"/>
    <path d="M81 157L113 139L140 157L119 181H93L81 157Z" fill="#5DFFCF"/>
    <path d="M171 149L199 129L211 149L184 173L171 149Z" fill="#4FD1FF" fill-opacity="0.88"/>
    <path d="M27 86L5 70L12 106L22 151L42 136L27 86Z" fill="#8A7DFF" fill-opacity="0.75"/>
    <circle cx="131" cy="96" r="6" fill="#E9F3FF"/>
  </g>
  <text x="360" y="285" fill="#E9F3FF" font-family="'Space Grotesk', 'Segoe UI', sans-serif" font-size="108" font-weight="700" letter-spacing="-3">avantelabs</text>
  <text x="363" y="338" fill="#5DFFCF" font-family="'Manrope', 'Segoe UI', sans-serif" font-size="25" font-weight="800" letter-spacing="7">SOLUCOES DIGITAIS E TECNOLOGIA</text>
  <text x="363" y="430" fill="#E9F3FF" font-family="'Manrope', 'Segoe UI', sans-serif" font-size="42" font-weight="700">Criamos solucoes digitais que transformam operacoes,</text>
  <text x="363" y="485" fill="#E9F3FF" font-family="'Manrope', 'Segoe UI', sans-serif" font-size="42" font-weight="700">conectam mercados e impulsionam negocios para o futuro.</text>
  <text x="363" y="552" fill="#9FB1C9" font-family="'Manrope', 'Segoe UI', sans-serif" font-size="28" font-weight="500">avantelabs.com.br</text>
  <defs>
    <radialGradient id="orb1" cx="0" cy="0" r="1" gradientUnits="userSpaceOnUse" gradientTransform="translate(190 142) rotate(90) scale(180)">
      <stop stop-color="#4FD1FF"/>
      <stop offset="1" stop-color="#4FD1FF" stop-opacity="0"/>
    </radialGradient>
    <radialGradient id="orb2" cx="0" cy="0" r="1" gradientUnits="userSpaceOnUse" gradientTransform="translate(1015 132) rotate(90) scale(170)">
      <stop stop-color="#8A7DFF"/>
      <stop offset="1" stop-color="#8A7DFF" stop-opacity="0"/>
    </radialGradient>
    <linearGradient id="wolfCore" x1="22" y1="16" x2="199" y2="215" gradientUnits="userSpaceOnUse">
      <stop stop-color="#4FD1FF"/>
      <stop offset="0.5" stop-color="#8A7DFF"/>
      <stop offset="1" stop-color="#5DFFCF"/>
    </linearGradient>
  </defs>
</svg>
