<svg width="560" height="200" viewBox="0 0 560 200" fill="none" xmlns="http://www.w3.org/2000/svg">
  <rect x="2" y="2" width="556" height="196" rx="34" fill="#0A1527"/>
  <rect x="2" y="2" width="556" height="196" rx="34" stroke="url(#stroke)" stroke-width="4"/>
  <rect x="45" y="52" width="102" height="96" rx="24" fill="url(#mark)"/>
  <path d="M79 79H109C124 79 134 87 134 100C134 113 124 121 109 121H98V134H79V79ZM98 94V107H108C113 107 116 105 116 100C116 95 113 94 108 94H98Z" fill="#07111F"/>
  <path d="M74 143H119" stroke="#E9F3FF" stroke-width="6" stroke-linecap="round"/>
  <text x="188" y="100" fill="#E9F3FF" font-family="'Space Grotesk', 'Segoe UI', sans-serif" font-size="44" font-weight="700">Repor</text>
  <text x="188" y="136" fill="#9FB1C9" font-family="'Manrope', 'Segoe UI', sans-serif" font-size="18" font-weight="600" letter-spacing="2.5">REPOSICAO COM RITMO E CONTROLE</text>
  <defs>
    <linearGradient id="stroke" x1="40" y1="30" x2="520" y2="170" gradientUnits="userSpaceOnUse">
      <stop stop-color="#8A7DFF"/>
      <stop offset="1" stop-color="#4FD1FF"/>
    </linearGradient>
    <linearGradient id="mark" x1="45" y1="52" x2="147" y2="148" gradientUnits="userSpaceOnUse">
      <stop stop-color="#8A7DFF"/>
      <stop offset="1" stop-color="#4FD1FF"/>
    </linearGradient>
  </defs>
</svg>
